<svg xmlns="http://www.w3.org/2000/svg" viewBox="0 0 814 1000" width="20" height="20">
  <path fill="#ffffff" d="M735 769c-14 32-31 61-50 89-26 38-47 64-62 80-24 27-49 41-75 41-19 0-41-6-66-19-25-13-48-19-69-19-23 0-48 6-75 19-27 12-49 19-67 20-26 1-52-13-80-43-21-23-44-53-67-91-29-49-53-106-70-171-19-72-22-142-10-208 6-33 20-64 42-94 22-30 49-54 83-72 34-17 71-26 111-26 22 0 50 7 84 21 33 15 55 22 66 22 8 0 31-8 69-24 37-15 69-21 94-21 34 0 65 9 94 26 14 9 29 20 44 35-17 14-33 31-47 52-18 26-27 56-27 88 0 35 9 67 28 95 18 29 42 51 72 66-6 19-14 38-22 57zM556 93c0 25-9 49-26 72-21 28-45 45-72 43-1-3-1-6-1-10 0-23 10-48 28-71 9-12 21-22 34-31 13-9 25-14 36-15 1 4 1 8 1 12z"/>
</svg>
