<svg xmlns="http://www.w3.org/2000/svg" width="20" height="20" viewBox="0 0 24 24" fill="#000">
  <path d="M16.365 1.43c0 1.14-.45 2.205-1.272 3.084-.91.956-2.064 1.51-3.29 
  1.42-.046-1.1.393-2.23 1.22-3.086.87-.9 2.19-1.56 3.34-1.67zm4.383 
  16.343c-.24.554-.52 1.088-.84 1.6-.45.72-.82 1.22-1.11 1.55-.57.66-1.19 
  1.34-2.06 1.35-.78.01-1.31-.44-2.29-.44-.98 0-1.56.43-2.32.45-.87.02-1.53-.69-2.1-1.35-.38-.46-.69-.97-.96-1.52-1.02-2.01-1.79-4.48-1-6.85.34-1.05.94-1.98 
  1.7-2.66.76-.68 1.74-1.09 2.74-1.11.85-.02 1.66.48 2.29.48.63 0 
  1.57-.59 2.65-.51.45.02 1.71.18 2.52 1.36-.06.04-1.51.88-1.5 
  2.63.02 2.09 1.85 2.78 1.87 2.79-.02.07-.29 1.02-.74 2.09z"/>
</svg>
